# xmcd
#
# Track frame offsets: 
#        150
#        15301
#        33016
#        46909
#        64358
#        80779
#
# Disc length: 1345 seconds
#
# Revision: 0
# Processed by: cddbd v1.5.2PL0 Copyright (c) Steve Scherf et al.
# Submitted via: ExactAudioCopy v1.0b3
#
DISCID=41053f06
DTITLE=Love and Theft - Live In Savannah
DYEAR=2008
DGENRE=Country
TTITLE0=It's Up to You
TTITLE1=Runaway
TTITLE2=Dancing In Circles
TTITLE3=Ring of Fire
TTITLE4=Don't Wake Me
TTITLE5=Drowning
EXTD=
EXTT0=
EXTT1=
EXTT2=
EXTT3=
EXTT4=
EXTT5=
PLAYORDER=
